{
	"asset":{
		"generator":"Khronos glTF Blender I/O v4.0.44",
		"version":"2.0"
	},
	"extensionsUsed":[
		"KHR_materials_specular",
		"KHR_materials_ior",
		"KHR_materials_emissive_strength"
	],
	"scene":0,
	"scenes":[
		{
			"name":"Scene",
			"nodes":[
				0,
				1,
				2,
				3,
				4,
				5,
				6,
				7
			]
		}
	],
	"nodes":[
		{
			"mesh":0,
			"name":"Cone",
			"rotation":[
				0,
				0.3826834559440613,
				0,
				0.9238795638084412
			],
			"translation":[
				0,
				-0.5424872636795044,
				0
			]
		},
		{
			"mesh":1,
			"name":"Cone.001",
			"rotation":[
				0,
				0.3826834559440613,
				0,
				0.9238795638084412
			],
			"translation":[
				0,
				-0.5424872636795044,
				0
			]
		},
		{
			"mesh":2,
			"name":"Cone.002",
			"rotation":[
				0,
				0.3826834559440613,
				0,
				0.9238795638084412
			],
			"translation":[
				0,
				-0.5424872636795044,
				0
			]
		},
		{
			"mesh":3,
			"name":"Cone.003",
			"rotation":[
				0,
				0.3826834559440613,
				0,
				0.9238795638084412
			],
			"translation":[
				0,
				-0.5424872636795044,
				0
			]
		},
		{
			"mesh":4,
			"name":"Cone.004",
			"rotation":[
				0,
				0.3826834559440613,
				0,
				0.9238795638084412
			],
			"translation":[
				0,
				-0.5424872636795044,
				0
			]
		},
		{
			"mesh":5,
			"name":"Cone.005",
			"rotation":[
				0,
				0.3826834559440613,
				0,
				0.9238795638084412
			],
			"translation":[
				0,
				-0.5424872636795044,
				0
			]
		},
		{
			"mesh":6,
			"name":"Cone.006",
			"rotation":[
				0,
				0.3826834559440613,
				0,
				0.9238795638084412
			],
			"translation":[
				0,
				-0.5424872636795044,
				0
			]
		},
		{
			"mesh":7,
			"name":"Cone.007",
			"rotation":[
				0,
				0.3826834559440613,
				0,
				0.9238795638084412
			],
			"translation":[
				0,
				-0.5424872636795044,
				0
			]
		}
	],
	"materials":[
		{
			"doubleSided":true,
			"extensions":{
				"KHR_materials_specular":{
					"specularFactor":0.019999999552965164
				},
				"KHR_materials_ior":{
					"ior":1.4500000476837158
				}
			},
			"name":"Metal",
			"pbrMetallicRoughness":{
				"baseColorFactor":[
					0.0035887802951037884,
					0.0035887802951037884,
					0.0035887802951037884,
					1
				],
				"metallicFactor":0,
				"roughnessFactor":0.3136363625526428
			}
		},
		{
			"doubleSided":true,
			"emissiveFactor":[
				1,
				1,
				1
			],
			"extensions":{
				"KHR_materials_emissive_strength":{
					"emissiveStrength":2
				},
				"KHR_materials_specular":{
					"specularFactor":0
				},
				"KHR_materials_ior":{
					"ior":1.4500000476837158
				}
			},
			"name":"Glow",
			"pbrMetallicRoughness":{
				"baseColorFactor":[
					0.800000011920929,
					0.800000011920929,
					0.800000011920929,
					1
				],
				"metallicFactor":0,
				"roughnessFactor":0
			}
		}
	],
	"meshes":[
		{
			"name":"Cone",
			"primitives":[
				{
					"attributes":{
						"POSITION":0,
						"NORMAL":1,
						"TEXCOORD_0":2
					},
					"indices":3,
					"material":0
				},
				{
					"attributes":{
						"POSITION":4,
						"NORMAL":5,
						"TEXCOORD_0":6
					},
					"indices":7,
					"material":1
				}
			]
		},
		{
			"name":"Cone.001",
			"primitives":[
				{
					"attributes":{
						"POSITION":8,
						"NORMAL":9,
						"TEXCOORD_0":10
					},
					"indices":11,
					"material":0
				}
			]
		},
		{
			"name":"Cone.002",
			"primitives":[
				{
					"attributes":{
						"POSITION":12,
						"NORMAL":13,
						"TEXCOORD_0":14
					},
					"indices":15,
					"material":0
				},
				{
					"attributes":{
						"POSITION":16,
						"NORMAL":17,
						"TEXCOORD_0":18
					},
					"indices":19,
					"material":1
				}
			]
		},
		{
			"name":"Cone.003",
			"primitives":[
				{
					"attributes":{
						"POSITION":20,
						"NORMAL":21,
						"TEXCOORD_0":22
					},
					"indices":23,
					"material":0
				},
				{
					"attributes":{
						"POSITION":24,
						"NORMAL":25,
						"TEXCOORD_0":26
					},
					"indices":19,
					"material":1
				}
			]
		},
		{
			"name":"Cone.004",
			"primitives":[
				{
					"attributes":{
						"POSITION":27,
						"NORMAL":28,
						"TEXCOORD_0":29
					},
					"indices":30,
					"material":0
				},
				{
					"attributes":{
						"POSITION":31,
						"NORMAL":32,
						"TEXCOORD_0":33
					},
					"indices":19,
					"material":1
				}
			]
		},
		{
			"name":"Cone.005",
			"primitives":[
				{
					"attributes":{
						"POSITION":34,
						"NORMAL":35,
						"TEXCOORD_0":36
					},
					"indices":37,
					"material":0
				},
				{
					"attributes":{
						"POSITION":38,
						"NORMAL":39,
						"TEXCOORD_0":40
					},
					"indices":19,
					"material":1
				}
			]
		},
		{
			"name":"Cone.006",
			"primitives":[
				{
					"attributes":{
						"POSITION":41,
						"NORMAL":42,
						"TEXCOORD_0":43
					},
					"indices":44,
					"material":0
				},
				{
					"attributes":{
						"POSITION":45,
						"NORMAL":46,
						"TEXCOORD_0":47
					},
					"indices":48,
					"material":1
				}
			]
		},
		{
			"name":"Cone.007",
			"primitives":[
				{
					"attributes":{
						"POSITION":49,
						"NORMAL":50,
						"TEXCOORD_0":51
					},
					"indices":52,
					"material":0
				},
				{
					"attributes":{
						"POSITION":53,
						"NORMAL":54,
						"TEXCOORD_0":55
					},
					"indices":56,
					"material":1
				}
			]
		}
	],
	"accessors":[
		{
			"bufferView":0,
			"componentType":5126,
			"count":112,
			"max":[
				1.254447102546692,
				0.0945221558213234,
				1.254447102546692
			],
			"min":[
				-1.254447102546692,
				0.0032803788781166077,
				-1.254447102546692
			],
			"type":"VEC3"
		},
		{
			"bufferView":1,
			"componentType":5126,
			"count":112,
			"type":"VEC3"
		},
		{
			"bufferView":2,
			"componentType":5126,
			"count":112,
			"type":"VEC2"
		},
		{
			"bufferView":3,
			"componentType":5123,
			"count":168,
			"type":"SCALAR"
		},
		{
			"bufferView":4,
			"componentType":5126,
			"count":16,
			"max":[
				1.211925983428955,
				0.06410825252532959,
				1.211925983428955
			],
			"min":[
				-1.211925983428955,
				0.033694326877593994,
				-1.211925983428955
			],
			"type":"VEC3"
		},
		{
			"bufferView":5,
			"componentType":5126,
			"count":16,
			"type":"VEC3"
		},
		{
			"bufferView":6,
			"componentType":5126,
			"count":16,
			"type":"VEC2"
		},
		{
			"bufferView":7,
			"componentType":5123,
			"count":24,
			"type":"SCALAR"
		},
		{
			"bufferView":8,
			"componentType":5126,
			"count":16,
			"max":[
				0.1568058878183365,
				1.4631487131118774,
				0.1568058878183365
			],
			"min":[
				-0.1568058878183365,
				1.2806651592254639,
				-0.15680590271949768
			],
			"type":"VEC3"
		},
		{
			"bufferView":9,
			"componentType":5126,
			"count":16,
			"type":"VEC3"
		},
		{
			"bufferView":10,
			"componentType":5126,
			"count":16,
			"type":"VEC2"
		},
		{
			"bufferView":11,
			"componentType":5123,
			"count":18,
			"type":"SCALAR"
		},
		{
			"bufferView":12,
			"componentType":5126,
			"count":112,
			"max":[
				1.0976412296295166,
				0.27700570225715637,
				1.0976412296295166
			],
			"min":[
				-1.0976412296295166,
				0.1857639104127884,
				-1.097641110420227
			],
			"type":"VEC3"
		},
		{
			"bufferView":13,
			"componentType":5126,
			"count":112,
			"type":"VEC3"
		},
		{
			"bufferView":14,
			"componentType":5126,
			"count":112,
			"type":"VEC2"
		},
		{
			"bufferView":15,
			"componentType":5123,
			"count":168,
			"type":"SCALAR"
		},
		{
			"bufferView":16,
			"componentType":5126,
			"count":16,
			"max":[
				1.0572121143341064,
				0.24659177660942078,
				1.0572121143341064
			],
			"min":[
				-1.0572121143341064,
				0.2161778211593628,
				-1.057211995124817
			],
			"type":"VEC3"
		},
		{
			"bufferView":17,
			"componentType":5126,
			"count":16,
			"type":"VEC3"
		},
		{
			"bufferView":18,
			"componentType":5126,
			"count":16,
			"type":"VEC2"
		},
		{
			"bufferView":19,
			"componentType":5123,
			"count":24,
			"type":"SCALAR"
		},
		{
			"bufferView":20,
			"componentType":5126,
			"count":112,
			"max":[
				0.9408352971076965,
				0.45948925614356995,
				0.9408352971076965
			],
			"min":[
				-0.9408352971076965,
				0.36824744939804077,
				-0.9408352971076965
			],
			"type":"VEC3"
		},
		{
			"bufferView":21,
			"componentType":5126,
			"count":112,
			"type":"VEC3"
		},
		{
			"bufferView":22,
			"componentType":5126,
			"count":112,
			"type":"VEC2"
		},
		{
			"bufferView":23,
			"componentType":5123,
			"count":168,
			"type":"SCALAR"
		},
		{
			"bufferView":24,
			"componentType":5126,
			"count":16,
			"max":[
				0.9024980664253235,
				0.42907533049583435,
				0.9024980664253235
			],
			"min":[
				-0.9024980664253235,
				0.39866137504577637,
				-0.9024980664253235
			],
			"type":"VEC3"
		},
		{
			"bufferView":25,
			"componentType":5126,
			"count":16,
			"type":"VEC3"
		},
		{
			"bufferView":26,
			"componentType":5126,
			"count":16,
			"type":"VEC2"
		},
		{
			"bufferView":27,
			"componentType":5126,
			"count":112,
			"max":[
				0.7840294241905212,
				0.6419728398323059,
				0.7840294241905212
			],
			"min":[
				-0.7840294241905212,
				0.5507310032844543,
				-0.7840294241905212
			],
			"type":"VEC3"
		},
		{
			"bufferView":28,
			"componentType":5126,
			"count":112,
			"type":"VEC3"
		},
		{
			"bufferView":29,
			"componentType":5126,
			"count":112,
			"type":"VEC2"
		},
		{
			"bufferView":30,
			"componentType":5123,
			"count":168,
			"type":"SCALAR"
		},
		{
			"bufferView":31,
			"componentType":5126,
			"count":16,
			"max":[
				0.7477841377258301,
				0.6115589141845703,
				0.7477841377258301
			],
			"min":[
				-0.7477841377258301,
				0.5811449289321899,
				-0.7477841377258301
			],
			"type":"VEC3"
		},
		{
			"bufferView":32,
			"componentType":5126,
			"count":16,
			"type":"VEC3"
		},
		{
			"bufferView":33,
			"componentType":5126,
			"count":16,
			"type":"VEC2"
		},
		{
			"bufferView":34,
			"componentType":5126,
			"count":112,
			"max":[
				0.627223551273346,
				0.8244563937187195,
				0.627223551273346
			],
			"min":[
				-0.627223551273346,
				0.7332145571708679,
				-0.627223551273346
			],
			"type":"VEC3"
		},
		{
			"bufferView":35,
			"componentType":5126,
			"count":112,
			"type":"VEC3"
		},
		{
			"bufferView":36,
			"componentType":5126,
			"count":112,
			"type":"VEC2"
		},
		{
			"bufferView":37,
			"componentType":5123,
			"count":168,
			"type":"SCALAR"
		},
		{
			"bufferView":38,
			"componentType":5126,
			"count":16,
			"max":[
				0.5930701494216919,
				0.7940424680709839,
				0.5930701494216919
			],
			"min":[
				-0.5930701494216919,
				0.7636284828186035,
				-0.5930701494216919
			],
			"type":"VEC3"
		},
		{
			"bufferView":39,
			"componentType":5126,
			"count":16,
			"type":"VEC3"
		},
		{
			"bufferView":40,
			"componentType":5126,
			"count":16,
			"type":"VEC2"
		},
		{
			"bufferView":41,
			"componentType":5126,
			"count":112,
			"max":[
				0.47041767835617065,
				1.0069398880004883,
				0.47041767835617065
			],
			"min":[
				-0.47041767835617065,
				0.9156981110572815,
				-0.47041767835617065
			],
			"type":"VEC3"
		},
		{
			"bufferView":42,
			"componentType":5126,
			"count":112,
			"type":"VEC3"
		},
		{
			"bufferView":43,
			"componentType":5126,
			"count":112,
			"type":"VEC2"
		},
		{
			"bufferView":44,
			"componentType":5123,
			"count":168,
			"type":"SCALAR"
		},
		{
			"bufferView":45,
			"componentType":5126,
			"count":16,
			"max":[
				0.4383562207221985,
				0.9765260219573975,
				0.4383562207221985
			],
			"min":[
				-0.4383562207221985,
				0.9461120367050171,
				-0.4383562207221985
			],
			"type":"VEC3"
		},
		{
			"bufferView":46,
			"componentType":5126,
			"count":16,
			"type":"VEC3"
		},
		{
			"bufferView":47,
			"componentType":5126,
			"count":16,
			"type":"VEC2"
		},
		{
			"bufferView":48,
			"componentType":5123,
			"count":24,
			"type":"SCALAR"
		},
		{
			"bufferView":49,
			"componentType":5126,
			"count":112,
			"max":[
				0.313611775636673,
				1.1894234418869019,
				0.313611775636673
			],
			"min":[
				-0.313611775636673,
				1.0981816053390503,
				-0.31361180543899536
			],
			"type":"VEC3"
		},
		{
			"bufferView":50,
			"componentType":5126,
			"count":112,
			"type":"VEC3"
		},
		{
			"bufferView":51,
			"componentType":5126,
			"count":112,
			"type":"VEC2"
		},
		{
			"bufferView":52,
			"componentType":5123,
			"count":168,
			"type":"SCALAR"
		},
		{
			"bufferView":53,
			"componentType":5126,
			"count":16,
			"max":[
				0.2836422622203827,
				1.159009575843811,
				0.2836422622203827
			],
			"min":[
				-0.2836422622203827,
				1.1285954713821411,
				-0.2836422920227051
			],
			"type":"VEC3"
		},
		{
			"bufferView":54,
			"componentType":5126,
			"count":16,
			"type":"VEC3"
		},
		{
			"bufferView":55,
			"componentType":5126,
			"count":16,
			"type":"VEC2"
		},
		{
			"bufferView":56,
			"componentType":5123,
			"count":24,
			"type":"SCALAR"
		}
	],
	"bufferViews":[
		{
			"buffer":0,
			"byteLength":1344,
			"byteOffset":0,
			"target":34962
		},
		{
			"buffer":0,
			"byteLength":1344,
			"byteOffset":1344,
			"target":34962
		},
		{
			"buffer":0,
			"byteLength":896,
			"byteOffset":2688,
			"target":34962
		},
		{
			"buffer":0,
			"byteLength":336,
			"byteOffset":3584,
			"target":34963
		},
		{
			"buffer":0,
			"byteLength":192,
			"byteOffset":3920,
			"target":34962
		},
		{
			"buffer":0,
			"byteLength":192,
			"byteOffset":4112,
			"target":34962
		},
		{
			"buffer":0,
			"byteLength":128,
			"byteOffset":4304,
			"target":34962
		},
		{
			"buffer":0,
			"byteLength":48,
			"byteOffset":4432,
			"target":34963
		},
		{
			"buffer":0,
			"byteLength":192,
			"byteOffset":4480,
			"target":34962
		},
		{
			"buffer":0,
			"byteLength":192,
			"byteOffset":4672,
			"target":34962
		},
		{
			"buffer":0,
			"byteLength":128,
			"byteOffset":4864,
			"target":34962
		},
		{
			"buffer":0,
			"byteLength":36,
			"byteOffset":4992,
			"target":34963
		},
		{
			"buffer":0,
			"byteLength":1344,
			"byteOffset":5028,
			"target":34962
		},
		{
			"buffer":0,
			"byteLength":1344,
			"byteOffset":6372,
			"target":34962
		},
		{
			"buffer":0,
			"byteLength":896,
			"byteOffset":7716,
			"target":34962
		},
		{
			"buffer":0,
			"byteLength":336,
			"byteOffset":8612,
			"target":34963
		},
		{
			"buffer":0,
			"byteLength":192,
			"byteOffset":8948,
			"target":34962
		},
		{
			"buffer":0,
			"byteLength":192,
			"byteOffset":9140,
			"target":34962
		},
		{
			"buffer":0,
			"byteLength":128,
			"byteOffset":9332,
			"target":34962
		},
		{
			"buffer":0,
			"byteLength":48,
			"byteOffset":9460,
			"target":34963
		},
		{
			"buffer":0,
			"byteLength":1344,
			"byteOffset":9508,
			"target":34962
		},
		{
			"buffer":0,
			"byteLength":1344,
			"byteOffset":10852,
			"target":34962
		},
		{
			"buffer":0,
			"byteLength":896,
			"byteOffset":12196,
			"target":34962
		},
		{
			"buffer":0,
			"byteLength":336,
			"byteOffset":13092,
			"target":34963
		},
		{
			"buffer":0,
			"byteLength":192,
			"byteOffset":13428,
			"target":34962
		},
		{
			"buffer":0,
			"byteLength":192,
			"byteOffset":13620,
			"target":34962
		},
		{
			"buffer":0,
			"byteLength":128,
			"byteOffset":13812,
			"target":34962
		},
		{
			"buffer":0,
			"byteLength":1344,
			"byteOffset":13940,
			"target":34962
		},
		{
			"buffer":0,
			"byteLength":1344,
			"byteOffset":15284,
			"target":34962
		},
		{
			"buffer":0,
			"byteLength":896,
			"byteOffset":16628,
			"target":34962
		},
		{
			"buffer":0,
			"byteLength":336,
			"byteOffset":17524,
			"target":34963
		},
		{
			"buffer":0,
			"byteLength":192,
			"byteOffset":17860,
			"target":34962
		},
		{
			"buffer":0,
			"byteLength":192,
			"byteOffset":18052,
			"target":34962
		},
		{
			"buffer":0,
			"byteLength":128,
			"byteOffset":18244,
			"target":34962
		},
		{
			"buffer":0,
			"byteLength":1344,
			"byteOffset":18372,
			"target":34962
		},
		{
			"buffer":0,
			"byteLength":1344,
			"byteOffset":19716,
			"target":34962
		},
		{
			"buffer":0,
			"byteLength":896,
			"byteOffset":21060,
			"target":34962
		},
		{
			"buffer":0,
			"byteLength":336,
			"byteOffset":21956,
			"target":34963
		},
		{
			"buffer":0,
			"byteLength":192,
			"byteOffset":22292,
			"target":34962
		},
		{
			"buffer":0,
			"byteLength":192,
			"byteOffset":22484,
			"target":34962
		},
		{
			"buffer":0,
			"byteLength":128,
			"byteOffset":22676,
			"target":34962
		},
		{
			"buffer":0,
			"byteLength":1344,
			"byteOffset":22804,
			"target":34962
		},
		{
			"buffer":0,
			"byteLength":1344,
			"byteOffset":24148,
			"target":34962
		},
		{
			"buffer":0,
			"byteLength":896,
			"byteOffset":25492,
			"target":34962
		},
		{
			"buffer":0,
			"byteLength":336,
			"byteOffset":26388,
			"target":34963
		},
		{
			"buffer":0,
			"byteLength":192,
			"byteOffset":26724,
			"target":34962
		},
		{
			"buffer":0,
			"byteLength":192,
			"byteOffset":26916,
			"target":34962
		},
		{
			"buffer":0,
			"byteLength":128,
			"byteOffset":27108,
			"target":34962
		},
		{
			"buffer":0,
			"byteLength":48,
			"byteOffset":27236,
			"target":34963
		},
		{
			"buffer":0,
			"byteLength":1344,
			"byteOffset":27284,
			"target":34962
		},
		{
			"buffer":0,
			"byteLength":1344,
			"byteOffset":28628,
			"target":34962
		},
		{
			"buffer":0,
			"byteLength":896,
			"byteOffset":29972,
			"target":34962
		},
		{
			"buffer":0,
			"byteLength":336,
			"byteOffset":30868,
			"target":34963
		},
		{
			"buffer":0,
			"byteLength":192,
			"byteOffset":31204,
			"target":34962
		},
		{
			"buffer":0,
			"byteLength":192,
			"byteOffset":31396,
			"target":34962
		},
		{
			"buffer":0,
			"byteLength":128,
			"byteOffset":31588,
			"target":34962
		},
		{
			"buffer":0,
			"byteLength":48,
			"byteOffset":31716,
			"target":34963
		}
	],
	"buffers":[
		{
			"byteLength":31764,
			"uri":"novel-attention-shapes-no-textures.bin"
		}
	]
}
